<svg width="705" height="632" viewBox="0 0 705 632" fill="none" xmlns="http://www.w3.org/2000/svg">
<path d="M126.5 169.5C126.5 162.064 130.256 155.132 136.485 151.071L243.58 81.2518C250.421 76.7919 259.169 76.4883 266.303 80.4632L393.412 151.289C400.383 155.173 404.704 162.527 404.704 170.507V355.6C404.704 363.072 400.911 370.033 394.633 374.085L278.037 449.332C270.799 454.003 261.5 454.02 254.245 449.375L136.638 374.076C130.321 370.032 126.5 363.049 126.5 355.548L126.5 169.5Z" stroke="#FFF9F9" stroke-linecap="round" stroke-linejoin="round" stroke-dasharray="2 2"/>
<g filter="url(#filter0_d_8_112)">
<path d="M0.500006 95.5003C0.500002 88.0644 4.25616 81.1318 10.4852 77.0708L117.58 7.25188C124.421 2.79201 133.169 2.4884 140.303 6.46332L267.412 77.2888C274.383 81.1729 278.704 88.527 278.704 96.5068V281.6C278.704 289.072 274.911 296.033 268.633 300.085L152.037 375.332C144.799 380.003 135.5 380.02 128.245 375.375L10.6376 300.076C4.32111 296.032 0.500103 289.049 0.500099 281.548L0.500006 95.5003Z" stroke="#FFF9F9" stroke-linecap="round" stroke-linejoin="round" stroke-dasharray="2 2" shape-rendering="crispEdges"/>
</g>
<path d="M205.902 221.574C205.793 214.139 209.447 207.152 215.616 203L321.674 131.617C328.449 127.057 337.192 126.625 344.383 130.495L472.518 199.446C479.545 203.228 483.973 210.517 484.091 218.496L486.808 403.57C486.918 411.041 483.228 418.057 477.01 422.2L361.531 499.151C354.362 503.928 345.065 504.081 337.743 499.543L219.042 425.98C212.667 422.029 208.744 415.102 208.634 407.603L205.902 221.574Z" stroke="#FF7700" stroke-width="2" stroke-dasharray="16 16"/>
<path d="M279.902 263.574C279.793 256.139 283.447 249.152 289.616 245L395.674 173.617C402.449 169.057 411.192 168.625 418.383 172.495L546.518 241.446C553.545 245.228 557.973 252.517 558.091 260.496L560.808 445.57C560.918 453.041 557.228 460.057 551.01 464.2L435.531 541.151C428.362 545.928 419.065 546.081 411.743 541.543L293.042 467.98C286.667 464.029 282.744 457.102 282.634 449.603L279.902 263.574Z" stroke="#FF7700" stroke-width="2" stroke-dasharray="16 16"/>
<path d="M347.902 301.574C347.793 294.139 351.447 287.152 357.616 283L463.674 211.617C470.449 207.057 479.192 206.625 486.383 210.495L614.518 279.446C621.545 283.228 625.973 290.517 626.091 298.496L628.808 483.57C628.918 491.041 625.228 498.057 619.01 502.2L503.531 579.151C496.362 583.928 487.065 584.081 479.743 579.543L361.042 505.98C354.667 502.029 350.744 495.102 350.634 487.603L347.902 301.574Z" stroke="#FF7700" stroke-width="2" stroke-dasharray="16 16"/>
<path d="M421.902 343.574C421.793 336.139 425.447 329.152 431.616 325L537.674 253.617C544.449 249.057 553.192 248.625 560.383 252.495L688.518 321.446C695.545 325.228 699.973 332.517 700.091 340.496L702.808 525.57C702.918 533.041 699.228 540.057 693.01 544.2L577.531 621.151C570.362 625.928 561.065 626.081 553.743 621.543L435.042 547.98C428.667 544.029 424.744 537.102 424.634 529.603L421.902 343.574Z" stroke="#FF7700" stroke-width="2" stroke-dasharray="16 16"/>
<defs>
<filter id="filter0_d_8_112" x="0" y="3.18127" width="298.504" height="408.466" filterUnits="userSpaceOnUse" color-interpolation-filters="sRGB">
<feFlood flood-opacity="0" result="BackgroundImageFix"/>
<feColorMatrix in="SourceAlpha" type="matrix" values="0 0 0 0 0 0 0 0 0 0 0 0 0 0 0 0 0 0 127 0" result="hardAlpha"/>
<feOffset dx="11" dy="24"/>
<feGaussianBlur stdDeviation="4.15"/>
<feComposite in2="hardAlpha" operator="out"/>
<feColorMatrix type="matrix" values="0 0 0 0 0 0 0 0 0 0 0 0 0 0 0 0 0 0 0.25 0"/>
<feBlend mode="normal" in2="BackgroundImageFix" result="effect1_dropShadow_8_112"/>
<feBlend mode="normal" in="SourceGraphic" in2="effect1_dropShadow_8_112" result="shape"/>
</filter>
</defs>
</svg>
